PathFileType	4	(x/y/z)	S05_PSF_T06
DataRate	CameraRate	NumFrames	NumMarkers	Units	OrigDataRate	OrigDataStartFrame	OrigNumFrames
240	240	5	50	mm	240	1	430
Frame#	Time	Sternum			R.Acromium			L.Acromium			Top.Head			R.ASIS			L.ASIS			R.PSIS			L.PSIS			R.Great.Tro			L.Great.Tro			R.Iliac.Crest			L.Iliac.Crest			V.Sacral			R.Thigh.Upper.Post			R.Thigh.Lower.Ant			R.Thigh.Lower.Post			R.Thigh.Upper.Ant			R.Knee.Lat			R.Knee.Med			R.Shank.Upper.Post			R.Shank.Lower.Ant			R.Shank.Lower.Post			R.Shank.Upper.Ant			R.Ankle.Lat			R.Ankle.Med			R.Heel.Upper			R.Heel.Med			R.Heel.Lat			R.Toe.Lat			R.Toe.Med			R.Toe.Tip			L.Thigh.Upper.Post			L.Thigh.Lower.Ant			L.Thigh.Lower.Post			L.Thigh.Upper.Ant			L.Knee.Lat			L.Shank.Upper.Post			L.Shank.Lower.Ant			L.Shank.Lower.Post			L.Shank.Upper.Ant			L.Ankle.Lat			L.Ankle.Med			L.Heel.Upper			L.Heel.Med			L.Heel.Lat			L.Toe.Lat			L.Toe.Med			L.Toe.Tip			Cervical.Spine			Back			
		X1	Y1	Z1	X2	Y2	Z2	X3	Y3	Z3	X4	Y4	Z4	X5	Y5	Z5	X6	Y6	Z6	X7	Y7	Z7	X8	Y8	Z8	X9	Y9	Z9	X10	Y10	Z10	X11	Y11	Z11	X12	Y12	Z12	X13	Y13	Z13	X14	Y14	Z14	X15	Y15	Z15	X16	Y16	Z16	X17	Y17	Z17	X18	Y18	Z18	X19	Y19	Z19	X20	Y20	Z20	X21	Y21	Z21	X22	Y22	Z22	X23	Y23	Z23	X24	Y24	Z24	X25	Y25	Z25	X26	Y26	Z26	X27	Y27	Z27	X28	Y28	Z28	X29	Y29	Z29	X30	Y30	Z30	X31	Y31	Z31	X32	Y32	Z32	X33	Y33	Z33	X34	Y34	Z34	X35	Y35	Z35	X36	Y36	Z36	X37	Y37	Z37	X38	Y38	Z38	X39	Y39	Z39	X40	Y40	Z40	X41	Y41	Z41	X42	Y42	Z42	X43	Y43	Z43	X44	Y44	Z44	X45	Y45	Z45	X46	Y46	Z46	X47	Y47	Z47	X48	Y48	Z48	X49	Y49	Z49	X50	Y50	Z50	

1	0	NaN	NaN	NaN	-1546.6	1507.3	486.97	-1566.8	1528	164.76	-1543.9	1816.1	310.85	NaN	NaN	NaN	NaN	NaN	NaN	NaN	NaN	NaN	NaN	NaN	NaN	-1644	930.18	518.59	-1587.3	912.88	131.59	-1629.6	1088.8	492.99	-1601.9	1076.2	157.04	-1739.1	987.79	325.04	NaN	NaN	NaN	-1603	620.12	458.45	-1674.9	625.02	481.22	NaN	NaN	NaN	NaN	NaN	NaN	NaN	NaN	NaN	-1843.5	315.4	436.15	-1800.2	236.99	436.34	-1867	246.07	418.01	-1782.5	311.34	453.68	NaN	NaN	NaN	-1821.5	164.76	327.98	-1917.7	96.139	351.07	-1907.5	61.542	325.16	-1913	68.277	388.66	-1751.6	42.083	449.23	-1711.2	45.156	330.33	-1648	56.105	377.91	-1518.8	681.74	132.3	-1419.6	637.08	158.59	-1479.9	595.38	147.3	-1450.4	721.95	145.42	-1435.1	520.09	158.45	-1402.4	313.99	159.01	-1313.7	297.12	152.14	-1365.7	251.3	174.45	-1350.7	356.38	142.48	-1266.7	143.48	173.32	-1233.2	179.13	256.16	NaN	NaN	NaN	-1250.9	59.039	264.16	-1263	46.948	205.39	-1120	138.75	125.94	-1093.8	172.51	239.14	-1054.1	213.14	176.95	-1602.1	1556.4	333.12	-1726	1285.4	332.35
2	0.0041667	NaN	NaN	NaN	-1541.7	1506.4	486.28	-1562	1526.8	164	-1539.1	1815.2	309.88	NaN	NaN	NaN	NaN	NaN	NaN	NaN	NaN	NaN	NaN	NaN	NaN	-1639.4	929.43	518.29	-1581.9	912.05	131.26	-1624.7	1087.9	492.66	-1596.8	1075.1	156.66	-1734.1	986.89	324.54	NaN	NaN	NaN	-1598.5	619.51	458.46	-1671.4	624.46	481	NaN	NaN	NaN	NaN	NaN	NaN	NaN	NaN	NaN	-1841.5	315.86	436.26	-1798.8	237.17	436.3	-1865.3	246.6	418.02	-1780.3	311.26	453.64	NaN	NaN	NaN	-1820.6	165.15	327.85	-1917.3	97.032	351.08	-1907.3	62.408	325.14	-1912.7	69.139	388.62	-1751.5	42.164	449.25	-1711.1	45.083	330.32	-1647.4	56.055	377.23	-1512.8	681.29	132.09	-1413.6	636.66	158.83	-1473.9	594.94	147.16	-1444.4	721.56	145.56	-1429.1	519.61	158.22	-1396.5	313.44	158.5	-1307.9	296.28	152.12	-1360.3	250.64	174	-1344.7	355.76	142.37	-1261.3	142.54	173.25	-1228.4	178.09	256.45	NaN	NaN	NaN	-1246.2	57.834	263.94	-1257.9	45.959	205.11	-1114.4	137.98	126.9	-1089	171.44	240.3	-1048.9	212.21	178.47	-1597.2	1555.4	332.38	-1721.1	1284.4	331.86
3	0.0083333	NaN	NaN	NaN	-1536.6	1505.5	485.55	-1556.9	1525.6	163.21	-1534	1814.2	308.86	NaN	NaN	NaN	NaN	NaN	NaN	NaN	NaN	NaN	NaN	NaN	NaN	-1634.6	928.65	517.96	-1576.3	911.21	130.91	-1619.7	1086.9	492.31	-1591.5	1074	156.26	-1728.8	985.97	324.01	NaN	NaN	NaN	-1593.8	618.87	458.47	-1667.7	623.89	480.77	NaN	NaN	NaN	NaN	NaN	NaN	NaN	NaN	NaN	-1839.5	316.37	436.38	-1797.4	237.37	436.27	-1863.6	247.19	418.04	-1778.1	311.19	453.6	NaN	NaN	NaN	-1819.7	165.57	327.73	-1917	97.997	351.09	-1907.1	63.344	325.12	-1912.3	70.069	388.59	-1751.4	42.25	449.28	-1711	45.012	330.31	-1646.8	56.039	376.54	-1506.5	680.84	131.88	-1407.4	636.25	159.08	-1467.6	594.5	147.02	-1438.1	721.18	145.7	-1422.7	519.12	158	-1390.4	312.87	157.96	-1302.1	295.39	152.13	-1354.7	249.94	173.54	-1338.5	355.09	142.28	-1255.9	141.52	173.19	-1223.5	176.94	256.75	-1262.4	68.146	234.41	-1241.5	56.548	263.72	-1252.8	44.907	204.81	-1108.7	137.06	127.89	-1084.1	170.17	241.49	-1043.6	211.07	180.04	-1592	1554.4	331.6	-1716	1283.5	331.36
4	0.0125	NaN	NaN	NaN	-1531.3	1504.5	484.78	-1551.7	1524.3	162.37	-1528.8	1813.2	307.8	NaN	NaN	NaN	NaN	NaN	NaN	NaN	NaN	NaN	NaN	NaN	NaN	-1629.5	927.86	517.62	-1570.4	910.36	130.55	-1614.5	1086	491.95	-1586	1073	155.84	-1723.4	985.02	323.45	NaN	NaN	NaN	-1589	618.21	458.48	-1663.8	623.29	480.55	NaN	NaN	NaN	NaN	NaN	NaN	NaN	NaN	NaN	-1837.3	316.93	436.52	-1795.8	237.59	436.25	-1861.8	247.83	418.07	-1775.8	311.15	453.58	NaN	NaN	NaN	-1818.7	166.02	327.62	-1916.5	99.037	351.12	-1906.9	64.354	325.11	-1912	71.069	388.57	-1751.3	42.339	449.33	-1710.9	44.944	330.3	-1646.1	56.062	375.83	-1499.9	680.41	131.67	-1401	635.86	159.35	-1461	594.07	146.89	-1431.6	720.82	145.85	-1416.1	518.63	157.79	-1384.2	312.31	157.41	-1296.1	294.43	152.15	-1349	249.21	173.09	-1332.2	354.37	142.21	-1250.4	140.41	173.12	-1218.6	175.66	257.05	-1258.7	66.873	234.13	-1236.9	55.184	263.48	-1247.8	43.795	204.51	-1103	135.95	128.89	-1079.2	168.69	242.69	-1038.2	209.7	181.64	-1586.7	1553.4	330.79	-1710.6	1282.5	330.83
5	0.016667	NaN	NaN	NaN	-1525.9	1503.6	483.98	-1546.3	1523.1	161.51	-1523.5	1812.2	306.7	NaN	NaN	NaN	NaN	NaN	NaN	NaN	NaN	NaN	NaN	NaN	NaN	-1624.3	927.05	517.25	-1564.3	909.51	130.17	-1609.1	1085	491.58	-1580.3	1071.8	155.41	-1717.8	984.06	322.87	NaN	NaN	NaN	-1584	617.52	458.49	-1659.7	622.67	480.33	NaN	NaN	NaN	NaN	NaN	NaN	NaN	NaN	NaN	-1835.2	317.55	436.66	-1794.2	237.84	436.23	-1860	248.52	418.12	-1773.4	311.13	453.56	NaN	NaN	NaN	-1817.7	166.52	327.52	-1916.1	100.15	351.16	-1906.6	65.441	325.11	-1911.6	72.141	388.57	-1751.2	42.432	449.38	-1710.7	44.88	330.3	-1645.3	56.131	375.11	-1493.1	679.98	131.48	-1394.3	635.5	159.63	-1454.2	593.67	146.79	-1424.8	720.46	146	-1409.4	518.15	157.59	-1377.9	311.74	156.85	-1290	293.4	152.2	-1343.2	248.44	172.64	-1325.7	353.6	142.15	-1245.1	139.22	173.06	-1213.8	174.27	257.35	-1255	65.561	233.85	-1232.4	53.746	263.25	-1242.9	42.633	204.2	-1097.4	134.64	129.9	-1074.4	166.96	243.9	-1032.9	208.07	183.27	-1581.2	1552.4	329.94	-1705.1	1281.5	330.28
